#!OML:ASF H:\Terrain\Walking\May29\JustinRory\Justin.ASF
:FULLY-SPECIFIED
:DEGREES
517
root 10.716414251497005 17.442825748502994 -7.989908982035928 -15.27339221556886 -25.08416365269461 -20.43435329341317 
lowerback 3.6904755688622757 1.1768002994011977 -0.03189251497005979 
upperback 0.21517693089820358 1.6039961077844311 2.2031613173652698 
thorax -1.8825101976047904 0.8127261077844311 2.2094549281437126 
lowerneck -15.01984251497006 -4.248756706586827 -11.980649101796406 
upperneck 22.791445508982036 -3.8404420898203595 3.3370063353293413 
head 10.084165269461078 -2.490309880239521 2.6562585628742514 
rclavicle 2.2924682634730536e-14 -9.338143173652695e-15 
rhumerus -22.627495209580836 -10.048629281437124 -83.94661437125748 
rradius 25.60721137724551 
rwrist -1.9347353293413176 
rhand -13.465915568862275 -302.65670119760483 
rfingers 7.12502 
rthumb 12.64410239520958 -8.900923233532934 
lclavicle 2.2924682634730536e-14 -9.338143173652695e-15 
lhumerus -28.366005389221556 16.437483233532934 76.90401137724551 
lradius 40.48121077844311 
lwrist -6.560840299401198 
lhand 3.5103552694610776 39.679446107784436 
lfingers 7.12502 
lthumb 28.947934730538922 67.4502736526946 
rfemur -13.06146497005988 -3.163858688622754 19.88122574850299 
rtibia 31.181870658682634 
rfoot -13.585505748502994 -9.777069820359282 
rtoes -1.7032124550898204 
lfemur -12.243993413173653 5.10331502994012 -14.94597005988024 
ltibia 33.25819520958084 
lfoot -19.482685886227546 13.471772934131737 
ltoes -9.934054910179642 
518
root 10.713147864271455 17.443732135728542 -7.936852295409182 -15.632449121756485 -25.01290215568862 -20.77618806387225 
lowerback 3.6865950898203597 1.1820585209580838 -0.022579976047904127 
upperback 0.21468247856287426 1.6113362275449101 2.2021905588822355 
thorax -1.8803360838323353 0.8163992275449101 2.20314051497006 
lowerneck -15.028645309381238 -4.243801936127745 -11.97691477045908 
upperneck 22.79237385229541 -3.8330658562874254 3.331356263473054 
head 10.085482235528941 -2.4876975249501 2.654513632734531 
rclavicle 2.3128141117764468e-14 -9.310765588822357e-15 
rhumerus -22.629267664670657 -10.043298483033931 -83.93349700598803 
rradius 25.637001796407187 
rwrist -1.9778021397205592 
rhand -13.464621756487027 -301.932224750499 
rfingers 7.12502 
rthumb 12.645349500998005 -8.894930159680639 
lclavicle 2.3128141117764468e-14 -9.310765588822357e-15 
lhumerus -28.38741137724551 16.423720159680638 76.91286846307385 
lradius 40.45825608782435 
lwrist -6.566606187624751 
lhand 3.5058389021956087 39.67525289421158 
lfingers 7.12502 
lthumb 28.943617764471057 67.44678882235529 
rfemur -13.014009381237525 -3.1562168982035925 19.89529880239521 
rtibia 31.17699361277445 
rfoot -13.57265880239521 -9.748349620758482 
rtoes -1.7090974051896208 
lfemur -12.277730538922155 5.094973952095809 -14.94358123752495 
ltibia 33.24316766467066 
lfoot -19.43811698203593 13.445260638722555 
ltoes -9.91948147704591 
519
root 10.709881477045908 17.44463852295409 -7.883795608782435 -15.99150602794411 -24.941640658682633 -21.118022834331335 
lowerback 3.682714610778443 1.18731674251497 -0.013267437125748405 
upperback 0.2141880262275449 1.6186763473053891 2.2012198003992016 
thorax -1.8781619700598802 0.8200723473053892 2.196826101796407 
lowerneck -15.037448103792416 -4.238847165668663 -11.973180439121755 
upperneck 22.79330219560878 -3.825689622754491 3.3257061916167667 
head 10.086799201596806 -2.485085169660679 2.6527687025948103 
rclavicle 2.3331599600798402e-14 -9.283388003992016e-15 
rhumerus -22.631040119760478 -10.037967684630738 -83.92037964071856 
rradius 25.666792215568865 
rwrist -2.0208689500998007 
rhand -13.463327944111777 -301.20774830339326 
rfingers 7.12502 
rthumb 12.646596606786428 -8.888937085828342 
lclavicle 2.3331599600798402e-14 -9.283388003992016e-15 
lhumerus -28.40881736526946 16.409957085828342 76.92172554890219 
lradius 40.435301397205585 
lwrist -6.572372075848303 
lhand 3.50132253493014 39.67105968063873 
lfingers 7.12502 
lthumb 28.939300798403192 67.44330399201597 
rfemur -12.96655379241517 -3.148575107784431 19.909371856287425 
rtibia 31.172116566866265 
rfoot -13.559811856287425 -9.719629421157684 
rtoes -1.7149823552894212 
lfemur -12.311467664670658 5.086632874251498 -14.941192415169661 
ltibia 33.228140119760475 
lfoot -19.39354807784431 13.418748343313373 
ltoes -9.904908043912176 
520
root 10.706615089820358 17.445544910179642 -7.830738922155689 -16.350562934131734 -24.870379161676645 -21.459857604790415 
lowerback 3.678834131736527 1.1925749640718561 -0.003954898203592738 
upperback 0.21369357389221558 1.626016467065868 2.2002490419161678 
thorax -1.8759878562874253 0.8237454670658683 2.1905116886227542 
lowerneck -15.046250898203592 -4.233892395209581 -11.96944610778443 
upperneck 22.794230538922154 -3.818313389221557 3.320056119760479 
head 10.088116167664671 -2.4824728143712576 2.6510237724550896 
rclavicle 2.3535058083832337e-14 -9.256010419161676e-15 
rhumerus -22.6328125748503 -10.032636886227545 -83.9072622754491 
rradius 25.69658263473054 
rwrist -2.063935760479042 
rhand -13.462034131736527 -300.48327185628744 
rfingers 7.12502 
rthumb 12.64784371257485 -8.882944011976047 
lclavicle 2.3535058083832337e-14 -9.256010419161676e-15 
lhumerus -28.430223353293414 16.396194011976046 76.93058263473053 
lradius 40.412346706586824 
lwrist -6.578137964071856 
lhand 3.4968061676646705 39.66686646706587 
lfingers 7.12502 
lthumb 28.934983832335327 67.43981916167665 
rfemur -12.919098203592814 -3.140933317365269 19.92344491017964 
rtibia 31.167239520958084 
rfoot -13.546964910179641 -9.690909221556886 
rtoes -1.7208673053892216 
lfemur -12.345204790419162 5.078291796407186 -14.938803592814372 
ltibia 33.2131125748503 
lfoot -19.348979173652694 13.392236047904191 
ltoes -9.890334610778444 
521
root 10.703348702594809 17.44645129740519 -7.7776822355289426 -16.70961984031936 -24.799117664670657 -21.801692375249498 
lowerback 3.6749536526946107 1.1978331856287425 0.005357640718562928 
upperback 0.21319912155688622 1.633356586826347 2.199278283433134 
thorax -1.8738137425149701 0.8274185868263473 2.1841972754491015 
lowerneck -15.05505369261477 -4.2289376247504995 -11.965711776447105 
upperneck 22.79515888223553 -3.810937155688623 3.3144060479041917 
head 10.089433133732534 -2.4798604590818365 2.6492788423153693 
rclavicle 2.3738516566866268e-14 -9.228632834331338e-15 
rhumerus -22.63458502994012 -10.02730608782435 -83.89414491017965 
rradius 25.726373053892218 
rwrist -2.1070025708582834 
rhand -13.460740319361278 -299.75879540918163 
rfingers 7.12502 
rthumb 12.649090818363273 -8.876950938123752 
lclavicle 2.3738516566866268e-14 -9.228632834331338e-15 
lhumerus -28.451629341317364 16.38243093812375 76.93943972055888 
lradius 40.38939201596806 
lwrist -6.583903852295409 
lhand 3.4922898003992016 39.66267325349302 
lfingers 7.12502 
lthumb 28.930666866267465 67.43633433133732 
rfemur -12.871642614770458 -3.1332915269461075 19.937517964071855 
rtibia 31.1623624750499 
rfoot -13.534117964071857 -9.662189021956088 
rtoes -1.726752255489022 
lfemur -12.378941916167665 5.0699507185628745 -14.936414770459082 
ltibia 33.19808502994012 
lfoot -19.30441026946108 13.36572375249501 
ltoes -9.875761177644712 
522
root 10.700082315369261 17.447357684630738 -7.724625548902196 -17.068676746506984 -24.72785616766467 -22.14352714570858 
lowerback 3.6710731736526947 1.2030914071856287 0.014670179640718595 
upperback 0.2127046692215569 1.6406967065868263 2.1983075249501 
thorax -1.871639628742515 0.8310917065868263 2.177882862275449 
lowerneck -15.063856487025948 -4.2239828542914175 -11.96197744510978 
upperneck 22.796087225548902 -3.8035609221556888 3.3087559760479044 
head 10.090750099800399 -2.4772481037924154 2.6475339121756485 
rclavicle 2.39419750499002e-14 -9.201255249500999e-15 
rhumerus -22.63635748502994 -10.021975289421157 -83.88102754491018 
rradius 25.756163473053892 
rwrist -2.150069381237525 
rhand -13.459446506986028 -299.0343189620759 
rfingers 7.12502 
rthumb 12.650337924151698 -8.870957864271457 
lclavicle 2.39419750499002e-14 -9.201255249500999e-15 
lhumerus -28.473035329341318 16.368667864271455 76.94829680638722 
lradius 40.3664373253493 
lwrist -6.589669740518962 
lhand 3.4877734331337322 39.658480039920164 
lfingers 7.12502 
lthumb 28.9263499001996 67.432849500998 
rfemur -12.824187025948104 -3.1256497365269458 19.95159101796407 
rtibia 31.157485429141715 
rfoot -13.521271017964072 -9.63346882235529 
rtoes -1.7326372055888224 
lfemur -12.412679041916167 5.061609640718563 -14.934025948103793 
ltibia 33.18305748502994 
lfoot -19.259841365269462 13.339211457085828 
ltoes -9.861187744510978 
523
root 10.696815928143712 17.448264071856286 -7.67156886227545 -17.42773365269461 -24.65659467065868 -22.485361916167662 
lowerback 3.6671926946107787 1.208349628742515 0.023982718562874372 
upperback 0.21221021688622754 1.6480368263473053 2.197336766467066 
thorax -1.8694655149700599 0.8347648263473053 2.1715684491017964 
lowerneck -15.072659281437126 -4.2190280838323355 -11.958243113772454 
upperneck 22.797015568862275 -3.7961846886227546 3.303105904191617 
head 10.092067065868264 -2.4746357485029944 2.645788982035928 
rclavicle 2.414543353293413e-14 -9.173877664670659e-15 
rhumerus -22.63812994011976 -10.016644491017964 -83.86791017964072 
rradius 25.78595389221557 
rwrist -2.1931361916167664 
rhand -13.458152694610778 -298.30984251497006 
rfingers 7.12502 
rthumb 12.65158502994012 -8.864964790419162 
lclavicle 2.414543353293413e-14 -9.173877664670659e-15 
lhumerus -28.49444131736527 16.35490479041916 76.95715389221556 
lradius 40.343482634730535 
lwrist -6.595435628742515 
lhand 3.4832570658682633 39.65428682634731 
lfingers 7.12502 
lthumb 28.922032934131735 67.42936467065869 
rfemur -12.776731437125749 -3.1180079461077845 19.965664071856285 
rtibia 31.15260838323353 
rfoot -13.508424071856288 -9.60474862275449 
rtoes -1.7385221556886228 
lfemur -12.44641616766467 5.053268562874251 -14.931637125748503 
ltibia 33.16802994011976 
lfoot -19.215272461077845 13.312699161676647 
ltoes -9.846614311377246 
